<?xml version="1.0" encoding="UTF-8"?>
<svg id="Layer_1" data-name="Layer 1" xmlns="http://www.w3.org/2000/svg" viewBox="100 430 875 220">
  <defs>
    <style>
      .cls-1, .cls-2 {
        fill: #7c73b5;
      }

      .cls-2 {
        stroke: #FAF9F8;
        stroke-miterlimit: 10;
        stroke-width: 12.4px;
      }

      .cls-3 {
        fill: #241f5b;
      }
    </style>
  </defs>
  <g>
    <path class="cls-3" d="M301.26,438.87h25c4.55,0,8.14,3.87,7.8,8.41l-11.62,152.96c-.1,1.38.99,2.56,2.37,2.56h0c.96,0,1.82-.58,2.19-1.46l64.38-154.68c1.21-2.92,4.06-4.81,7.22-4.81h31.53c4.51,0,8.08,3.8,7.81,8.29l-9.12,150.15c-.08,1.37,1,2.52,2.37,2.52h.02c.97,0,1.84-.59,2.2-1.48l63.82-157.56c1.2-2.95,4.06-4.88,7.25-4.88h23.78c5.61,0,9.4,5.74,7.19,10.9l-79.57,185.93c-1.23,2.88-4.06,4.74-7.19,4.74h-45.77c-4.52,0-8.1-3.83-7.8-8.34l5.94-88.89c.59-8.88-11.75-11.69-15.06-3.43l-38.38,95.75c-1.19,2.97-4.06,4.91-7.26,4.91h-47.59c-4.46,0-8.01-3.72-7.81-8.18l8.48-185.93c.19-4.18,3.63-7.46,7.81-7.46Z"/>
    <path class="cls-3" d="M689.71,450.55l-73.82,103.35c-.56.78-.96,1.66-1.18,2.59l-18.48,78.27c-.79,3.33-3.76,5.69-7.19,5.69h-22.82c-4.75,0-8.26-4.42-7.19-9.05l17.67-76.39c.26-1.13.25-2.3-.02-3.43l-25.49-103.56c-1.15-4.65,2.38-9.15,7.17-9.15h25.91c3.57,0,6.63,2.55,7.26,6.07l9.77,53.95c1.2,6.61,9.88,8.32,13.49,2.65l37.79-59.26c1.36-2.13,3.7-3.41,6.22-3.41h24.89c6,0,9.5,6.79,6.01,11.67Z"/>
    <path class="cls-3" d="M769.58,438.87c21.34,0,37.05,4.5,47.13,13.49,10.08,8.99,15.12,23.17,15.12,42.54s-4.25,35.57-12.75,48.62c-7.12,10.92-15.82,19.07-26.12,24.45-3.55,1.85-5.5,5.77-4.58,9.67l12.23,52.25c1.26,5.39-2.83,10.56-8.37,10.56h-23.07c-4.07,0-7.59-2.86-8.42-6.84l-10.49-50.34c-.83-3.99-4.34-6.84-8.42-6.84h-14.34c-4,0-7.47,2.76-8.38,6.66l-11.74,50.71c-.9,3.9-4.38,6.66-8.38,6.66h-23.26c-5.53,0-9.62-5.14-8.38-10.53l42.57-184.38c.9-3.9,4.37-6.66,8.38-6.66h51.26ZM780.4,528.69c6.23-8.49,9.34-17.88,9.34-28.16s-1.68-17.29-5.04-21.05c-3.36-3.75-9.19-5.63-17.49-5.63h-16c-4,0-7.47,2.76-8.37,6.65l-11.71,50.39c-1.25,5.39,2.84,10.54,8.37,10.54h15.56c10.67,0,19.12-4.25,25.34-12.75Z"/>
    <rect class="cls-1" x="817.17" y="595.9" width="45.32" height="45.32" rx="8.68" ry="8.68" transform="translate(1679.65 1237.12) rotate(180)"/>
    <path class="cls-3" d="M898.94,441.04c.59-1.32,1.91-2.17,3.35-2.17h64.38c2.08,0,3.74,1.72,3.68,3.79l-6,194.22c-.06,1.99-1.69,3.56-3.68,3.56h-33.54c-2.08,0-3.75-1.72-3.68-3.8l.93-27.37c.07-2.08-1.6-3.8-3.68-3.8h-50.59l.14-12.53c.14-3.79-2.87-6.95-6.66-7.02l-28.84-.46,64.17-144.42ZM922.96,476.62l-39.4,88.1c-1.09,2.43.69,5.18,3.36,5.18h35.57c1.97,0,3.59-1.55,3.67-3.52l3.83-88.1c.09-2.09-1.58-3.84-3.67-3.84h0c-1.45,0-2.77.85-3.36,2.18Z"/>
  </g>
  <g>
    <rect class="cls-2" x="257.19" y="488.54" width="45.32" height="45.32" rx="8.68" ry="8.68" transform="translate(559.69 1022.41) rotate(180)"/>
    <g>
      <rect class="cls-3" x="109.65" y="590.51" width="50.32" height="50.32" rx="8.68" ry="8.68" transform="translate(269.61 1231.34) rotate(180)"/>
      <rect class="cls-3" x="153.82" y="538.25" width="50.37" height="50.37" rx="8.68" ry="8.68" transform="translate(358.01 1126.88) rotate(180)"/>
      <rect class="cls-3" x="153.82" y="439.26" width="44.9" height="44.89" rx="8.68" ry="8.68" transform="translate(352.54 923.42) rotate(180)"/>
      <rect class="cls-1" x="195.1" y="486.04" width="50.32" height="50.32" rx="8.68" ry="8.68" transform="translate(440.51 1022.41) rotate(-180)"/>
      <rect class="cls-3" x="257.19" y="488.54" width="45.32" height="45.32" rx="8.68" ry="8.68" transform="translate(559.69 1022.41) rotate(180)"/>
    </g>
  </g>
</svg>